<?xml version="1.0" encoding="UTF-8"?>
<svg width="24px" height="20px" viewBox="0 0 24 20" version="1.1" xmlns="http://www.w3.org/2000/svg" xmlns:xlink="http://www.w3.org/1999/xlink">
    <!-- Generator: Sketch 50.2 (55047) - http://www.bohemiancoding.com/sketch -->
    <title>Shape</title>
    <desc>Created with Sketch.</desc>
    <defs></defs>
    <g id="Page-1" stroke="none" stroke-width="1" fill="none" fill-rule="evenodd">
        <g id="Desktop-HD" transform="translate(-1188.000000, -126.000000)" fill="#FFFFFF" fill-rule="nonzero">
            <g id="Nav" transform="translate(156.000000, 59.000000)">
                <g id="twitter" transform="translate(1020.000000, 53.000000)">
                    <path d="M35.954,16.323 C35.069,16.712 34.124,16.977 33.129,17.098 C34.143,16.487 34.923,15.524 35.292,14.375 C34.341,14.93 33.287,15.334 32.165,15.559 C31.269,14.6 29.992,14 28.574,14 C25.857,14 23.654,16.203 23.654,18.917 C23.654,19.307 23.699,19.682 23.781,20.041 C19.691,19.848 16.066,17.884 13.64,14.915 C13.213,15.637 12.974,16.476 12.974,17.39 C12.974,19.1 13.844,20.603 15.162,21.486 C14.355,21.46 13.596,21.238 12.934,20.87 L12.934,20.931 C12.934,23.316 14.627,25.305 16.88,25.758 C16.467,25.869 16.031,25.929 15.584,25.929 C15.27,25.929 14.969,25.899 14.668,25.843 C15.299,27.796 17.113,29.22 19.272,29.26 C17.592,30.579 15.463,31.365 13.17,31.365 C12.78,31.365 12.391,31.342 12,31.298 C14.189,32.692 16.768,33.507 19.557,33.507 C28.611,33.507 33.556,26.011 33.556,19.521 C33.556,19.312 33.556,19.101 33.541,18.891 C34.502,18.202 35.341,17.331 36.001,16.343 L35.954,16.323 Z" id="Shape"></path>
                </g>
            </g>
        </g>
    </g>
</svg>